<svg id="logo-purple" xmlns="http://www.w3.org/2000/svg" width="76.349" height="25.488" viewBox="0 0 76.349 25.488">
  <text id="nippy" transform="translate(0 19)" fill="#6a58db" font-size="21" font-family="Arial-BoldMT, Arial" font-weight="700"><tspan x="0" y="0">nippy</tspan></text>
  <g id="Grupo_6427" data-name="Grupo 6427" transform="translate(57.942 7.081)">
    <path id="Trazado_275" data-name="Trazado 275" d="M70.724,257.811l-.318.116a.539.539,0,1,1-.369-1.013l.32-.116a6.966,6.966,0,0,0-1.061-1.663l-.24.24a.539.539,0,0,1-.763-.763l.24-.24a6.965,6.965,0,0,0-1.663-1.061l-.116.32a.539.539,0,0,1-1.013-.369l.116-.318a7.06,7.06,0,0,0-1.809-.254h-.09a8.072,8.072,0,0,0,7.023,7.023v-.09A7.058,7.058,0,0,0,70.724,257.811Z" transform="translate(-61.657 -243.603)" fill="#f2b725"/>
    <path id="Trazado_276" data-name="Trazado 276" d="M78.27,8.162A8.138,8.138,0,0,1,76.1,7.845l-.129.355a.539.539,0,1,1-1.013-.369l.129-.353A8.041,8.041,0,0,1,73.03,6.165l-.267.267A.539.539,0,0,1,72,5.669l.267-.267a8.041,8.041,0,0,1-1.313-2.058l-.353.129a.539.539,0,1,1-.369-1.013l.355-.129A8.138,8.138,0,0,1,70.271.163l0-.163a8.074,8.074,0,0,0-8,8l.163,0a8.138,8.138,0,0,1,2.168.316l.129-.355a.539.539,0,1,1,1.013.369l-.129.353A8.041,8.041,0,0,1,67.666,10l.267-.267a.539.539,0,0,1,.763.763l-.267.267a8.04,8.04,0,0,1,1.313,2.058L70.1,12.7a.539.539,0,1,1,.369,1.013l-.355.129a8.139,8.139,0,0,1,.316,2.168l0,.163a8.074,8.074,0,0,0,8.005-8Z" transform="translate(-60.026)" fill="#f2b725"/>
    <path id="Trazado_277" data-name="Trazado 277" d="M315.205,3.593l.318-.116a.539.539,0,1,1,.369,1.013l-.32.116a6.965,6.965,0,0,0,1.061,1.663l.24-.24a.539.539,0,1,1,.763.763l-.24.24a6.966,6.966,0,0,0,1.663,1.061l.116-.32a.539.539,0,1,1,1.013.369l-.116.318a7.06,7.06,0,0,0,1.809.254h.09a8.072,8.072,0,0,0-7.023-7.023v.09a7.06,7.06,0,0,0,.254,1.809Z" transform="translate(-303.627 -1.633)" fill="#f2b725"/>
    <path id="Trazado_278" data-name="Trazado 278" d="M86.448,442.158,85.01,443.6a.539.539,0,0,0,.763.763l1.438-1.438a.539.539,0,1,0-.763-.763Z" transform="translate(-81.802 -426.11)" fill="#f2b725"/>
    <path id="Trazado_279" data-name="Trazado 279" d="M3.438,412.157a.539.539,0,0,0-.763,0L.158,414.674a.539.539,0,0,0,.763.763l2.517-2.517A.539.539,0,0,0,3.438,412.157Z" transform="translate(-0.001 -397.188)" fill="#f2b725"/>
    <path id="Trazado_280" data-name="Trazado 280" d="M.921,359.506l1.438-1.438a.539.539,0,1,0-.763-.763L.158,358.743a.539.539,0,0,0,.763.763Z" transform="translate(-0.001 -344.308)" fill="#f2b725"/>
  </g>
</svg>
