<svg id="icon-cocina-con-amor" xmlns="http://www.w3.org/2000/svg" width="125" height="202" viewBox="0 0 125 202">
  <rect id="Rect치ngulo_1276" data-name="Rect치ngulo 1276" width="125" height="202" rx="15" fill="#5f9bff"/>
  <text id="Cocina_con_amor" data-name="Cocina
con amor" transform="translate(15 36)" fill="#fff" font-size="18" font-family="Arial-BoldMT, Arial" font-weight="700"><tspan x="0" y="0">Cocina</tspan><tspan x="0" y="18">con amor</tspan></text>
  <g id="Grupo_6459" data-name="Grupo 6459" transform="translate(2.104 66.104)">
    <rect id="Rect치ngulo_1310" data-name="Rect치ngulo 1310" width="84" height="84" rx="7" transform="translate(23.896 23.896)" fill="#cfdfe8"/>
    <path id="Trazado_347" data-name="Trazado 347" d="M56,152h72.235v49.12H56Z" transform="translate(-26.221 -104.885)" fill="#394d5c"/>
    <path id="Trazado_348" data-name="Trazado 348" d="M67.532,45.772a5.289,5.289,0,0,1-.188,1.445,5.779,5.779,0,1,1,0-2.889A5.289,5.289,0,0,1,67.532,45.772Z" transform="translate(-26.195 -13.104)" fill="#7d8d9c"/>
    <path id="Trazado_349" data-name="Trazado 349" d="M403.532,45.772a5.289,5.289,0,0,1-.188,1.445,5.779,5.779,0,1,1,0-2.889A5.289,5.289,0,0,1,403.532,45.772Z" transform="translate(-301.518 -13.104)" fill="#7d8d9c"/>
    <path id="Trazado_350" data-name="Trazado 350" d="M88,296H98.113v2.889H88Z" transform="translate(-52.442 -222.88)" fill="#32b1cc"/>
    <path id="Trazado_351" data-name="Trazado 351" d="M372.584,296h9.285v2.889h-9.285Z" transform="translate(-285.634 -222.88)" fill="#32b1cc"/>
    <path id="Trazado_352" data-name="Trazado 352" d="M143.323,377.311l-5.779-8.668a1.445,1.445,0,0,0-1.2-.643H87.222a1.445,1.445,0,0,0-1.2.643l-5.779,8.668a1.445,1.445,0,0,0,1.2,2.246h60.678a1.445,1.445,0,0,0,1.2-2.246Zm-40.612-6.422h4.479l-.964,5.779h-5.441Zm-4.973,5.779H92.449l2.889-5.779h4.325Zm12.378-5.779h3.331l.964,5.779h-5.259Zm6.26,0h4.479l1.926,5.779H117.34Zm7.524,0h4.325l2.889,5.779h-5.289Zm-35.905,0h4.113l-2.889,5.779H84.143Zm46.351,5.779-2.889-5.779h4.113l3.852,5.779Z" transform="translate(-45.885 -281.878)" fill="#cfdfe8"/>
    <g id="Grupo_6458" data-name="Grupo 6458" transform="translate(41.336 44.554)">
      <path id="Trazado_353" data-name="Trazado 353" d="M186.86,163.558H183.97a4.4,4.4,0,0,1,1.965-3.521c.7-.578.925-.81.925-1.3,0-.454-.2-.695-.763-1.329A7.166,7.166,0,0,1,183.97,152h2.889a4.388,4.388,0,0,0,1.39,3.483,4.623,4.623,0,0,1,1.5,3.256,4.4,4.4,0,0,1-1.963,3.518c-.7.578-.926.812-.926,1.3Z" transform="translate(-172.412 -149.439)" fill="#e97424"/>
      <path id="Trazado_354" data-name="Trazado 354" d="M250.889,146.156H248a4.4,4.4,0,0,1,1.965-3.521c.7-.578.925-.81.925-1.3,0-.465-.185-.683-.92-1.3l1.851-2.219a4.14,4.14,0,0,1,0,7.04c-.7.578-.926.812-.926,1.3Z" transform="translate(-224.884 -137.816)" fill="#e97424"/>
      <path id="Trazado_355" data-name="Trazado 355" d="M330.889,162.113H328a5.033,5.033,0,0,1,1.868-3.67c.722-.722,1.021-1.073,1.021-1.625,0-.487-.225-.722-.925-1.3A4.4,4.4,0,0,1,328,152h2.889c0,.488.225.722.926,1.3a4.4,4.4,0,0,1,1.963,3.518,5.033,5.033,0,0,1-1.868,3.67C331.186,161.213,330.889,161.561,330.889,162.113Z" transform="translate(-290.437 -149.439)" fill="#e97424"/>
      <path id="Trazado_356" data-name="Trazado 356" d="M386.887,166.408H384a4.4,4.4,0,0,1,1.965-3.521c.7-.578.925-.81.925-1.3s-.225-.722-.926-1.3a4.132,4.132,0,0,1,0-7.034c.74-.614.925-.831.925-1.3h2.889a4.4,4.4,0,0,1-1.965,3.516c-.74.614-.925.831-.925,1.3,0,.487.225.722.925,1.3a4.133,4.133,0,0,1,0,7.037C387.112,165.685,386.887,165.919,386.887,166.408Z" transform="translate(-336.321 -149.399)" fill="#e97424"/>
      <path id="Trazado_357" data-name="Trazado 357" d="M122.886,190.408H120a4.4,4.4,0,0,1,1.965-3.521c.7-.578.925-.81.925-1.3s-.225-.722-.926-1.3a4.132,4.132,0,0,1,0-7.034c.74-.614.925-.831.925-1.3h2.889a4.4,4.4,0,0,1-1.965,3.516c-.74.614-.925.831-.925,1.3,0,.487.225.722.925,1.3a4.133,4.133,0,0,1,0,7.037c-.7.579-.923.813-.923,1.3Z" transform="translate(-119.996 -169.065)" fill="#e97424"/>
    </g>
    <path id="Trazado_358" data-name="Trazado 358" d="M93.779,65.445a5.29,5.29,0,0,1-.188,1.445H88V64h5.591A5.29,5.29,0,0,1,93.779,65.445Z" transform="translate(-52.442 -32.776)" fill="#394d5c"/>
    <path id="Trazado_359" data-name="Trazado 359" d="M429.779,65.445a5.289,5.289,0,0,1-.188,1.445H424V64h5.591A5.29,5.29,0,0,1,429.779,65.445Z" transform="translate(-327.765 -32.776)" fill="#394d5c"/>
    <path id="Trazado_360" data-name="Trazado 360" d="M184,56h26v5.779H184Z" transform="translate(-131.106 -26.221)" fill="#fcf05a"/>
    <path id="Trazado_361" data-name="Trazado 361" d="M144,48h2.889v2.889H144Z" transform="translate(-98.329 -19.666)" fill="#55b56a"/>
    <path id="Trazado_362" data-name="Trazado 362" d="M144,80h2.889v2.889H144Z" transform="translate(-98.329 -45.887)" fill="#55b56a"/>
    <path id="Trazado_363" data-name="Trazado 363" d="M352,48h2.889v2.889H352Z" transform="translate(-268.767 -19.666)" fill="#55b56a"/>
    <path id="Trazado_364" data-name="Trazado 364" d="M352,80h2.889v2.889H352Z" transform="translate(-268.767 -45.887)" fill="#55b56a"/>
    <path id="Trazado_365" data-name="Trazado 365" d="M56,272h5.779v11.558H56Z" transform="translate(-26.221 -203.214)" fill="#7d8d9c"/>
    <path id="Trazado_366" data-name="Trazado 366" d="M424,272h5.779v11.558H424Z" transform="translate(-327.765 -203.214)" fill="#7d8d9c"/>
    <path id="Trazado_367" data-name="Trazado 367" d="M134.025,241.967s-11.855-6.357-1.445-11.558,17.906-13.58,27.449-10.113,8.09,6.212,13,8.668c3.467,1.734,2.244,6.02,1.445,7.224-1.131,1.7-2.889,5.779-5.779,5.779Z" transform="translate(-85.465 -160.178)" fill="#d3843d"/>
    <path id="Trazado_368" data-name="Trazado 368" d="M204.387,251.382l-2.043-2.043c.444-.451,11.074-10.941,17.78-5.913l-1.734,2.312C214.471,242.8,206.953,248.815,204.387,251.382Z" transform="translate(-146.137 -178.685)" fill="#ffd782"/>
    <path id="Trazado_369" data-name="Trazado 369" d="M308.244,259.509l1.292-2.583,2.888,1.444-1.292,2.583Z" transform="translate(-232.913 -190.862)" fill="#ffd782"/>
    <path id="Trazado_370" data-name="Trazado 370" d="M56,424h72.235v5.779H56Z" transform="translate(-26.221 -327.765)" fill="#7d8d9c"/>
    <path id="Trazado_371" data-name="Trazado 371" d="M56,120h72.235v5.779H56Z" transform="translate(-26.221 -78.664)" fill="#7d8d9c"/>
  </g>
</svg>
