<svg id="retp-aceptado" xmlns="http://www.w3.org/2000/svg" xmlns:xlink="http://www.w3.org/1999/xlink" width="375.263" height="379.59" viewBox="0 0 375.263 379.59">
  <defs>
    <clipPath id="clip-path">
      <rect y="6" width="375.263" height="379.59" fill="none"/>
    </clipPath>
    <clipPath id="clip-path-2">
      <rect width="375.263" height="385.59" fill="none"/>
    </clipPath>
  </defs>
  <g id="Grupo_de_desplazamiento_1" data-name="Grupo de desplazamiento 1" transform="translate(0 -6)" clip-path="url(#clip-path)" style="isolation: isolate">
    <g id="Repetir_cuadrícula_1" data-name="Repetir cuadrícula 1" clip-path="url(#clip-path-2)">
      <g id="Grupo_6510" data-name="Grupo 6510" transform="translate(-39 -32)">
        <g id="Grupo_6428" data-name="Grupo 6428" transform="translate(-60.349 -299.489)">
          <text id="nippy" transform="translate(109.349 366.489)" fill="#6a58db" font-size="21" font-family="Arial-BoldMT, Arial" font-weight="700"><tspan x="0" y="0">nippy</tspan></text>
          <g id="Grupo_6427" data-name="Grupo 6427" transform="translate(167.291 354.57)">
            <path id="Trazado_275" data-name="Trazado 275" d="M70.724,257.811l-.318.116a.539.539,0,1,1-.369-1.013l.32-.116a6.966,6.966,0,0,0-1.061-1.663l-.24.24a.539.539,0,0,1-.763-.763l.24-.24a6.965,6.965,0,0,0-1.663-1.061l-.116.32a.539.539,0,0,1-1.013-.369l.116-.318a7.06,7.06,0,0,0-1.809-.254h-.09a8.072,8.072,0,0,0,7.023,7.023v-.09A7.058,7.058,0,0,0,70.724,257.811Z" transform="translate(-61.657 -243.603)" fill="#f2b725"/>
            <path id="Trazado_276" data-name="Trazado 276" d="M78.27,8.162A8.138,8.138,0,0,1,76.1,7.845l-.129.355a.539.539,0,1,1-1.013-.369l.129-.353A8.041,8.041,0,0,1,73.03,6.165l-.267.267A.539.539,0,0,1,72,5.669l.267-.267a8.041,8.041,0,0,1-1.313-2.058l-.353.129a.539.539,0,1,1-.369-1.013l.355-.129A8.138,8.138,0,0,1,70.271.163l0-.163a8.074,8.074,0,0,0-8,8l.163,0a8.138,8.138,0,0,1,2.168.316l.129-.355a.539.539,0,1,1,1.013.369l-.129.353A8.041,8.041,0,0,1,67.666,10l.267-.267a.539.539,0,0,1,.763.763l-.267.267a8.04,8.04,0,0,1,1.313,2.058L70.1,12.7a.539.539,0,1,1,.369,1.013l-.355.129a8.139,8.139,0,0,1,.316,2.168l0,.163a8.074,8.074,0,0,0,8.005-8Z" transform="translate(-60.026)" fill="#f2b725"/>
            <path id="Trazado_277" data-name="Trazado 277" d="M315.205,3.593l.318-.116a.539.539,0,1,1,.369,1.013l-.32.116a6.965,6.965,0,0,0,1.061,1.663l.24-.24a.539.539,0,1,1,.763.763l-.24.24a6.966,6.966,0,0,0,1.663,1.061l.116-.32a.539.539,0,1,1,1.013.369l-.116.318a7.06,7.06,0,0,0,1.809.254h.09a8.072,8.072,0,0,0-7.023-7.023v.09a7.06,7.06,0,0,0,.254,1.809Z" transform="translate(-303.627 -1.633)" fill="#f2b725"/>
            <path id="Trazado_278" data-name="Trazado 278" d="M86.448,442.158,85.01,443.6a.539.539,0,0,0,.763.763l1.438-1.438a.539.539,0,1,0-.763-.763Z" transform="translate(-81.802 -426.11)" fill="#f2b725"/>
            <path id="Trazado_279" data-name="Trazado 279" d="M3.438,412.157a.539.539,0,0,0-.763,0L.158,414.674a.539.539,0,0,0,.763.763l2.517-2.517A.539.539,0,0,0,3.438,412.157Z" transform="translate(-0.001 -397.188)" fill="#f2b725"/>
            <path id="Trazado_280" data-name="Trazado 280" d="M.921,359.506l1.438-1.438a.539.539,0,1,0-.763-.763L.158,358.743a.539.539,0,0,0,.763.763Z" transform="translate(-0.001 -344.308)" fill="#f2b725"/>
          </g>
        </g>
        <text id="Genial_has_aceptado_el_desafio" data-name="Genial
has aceptado 
el desafio" transform="translate(59 172)" fill="#6a58db" font-size="35" font-family="Arial-BoldMT, Arial" font-weight="700"><tspan x="0" y="0">Genial</tspan><tspan x="0" y="40">has aceptado </tspan><tspan x="0" y="80">el desafio</tspan></text>
        <g id="Grupo_6471" data-name="Grupo 6471" transform="translate(26 4)">
          <g id="Grupo_6434" data-name="Grupo 6434" transform="translate(54.408 -286.022)">
            <ellipse id="Elipse_291" data-name="Elipse 291" cx="100.392" cy="98.398" rx="100.392" ry="98.398" transform="translate(179.071 501.816)" fill="#e9e5ff"/>
            <g id="Grupo_6430" data-name="Grupo 6430" transform="translate(285.755 598.864) rotate(177)">
              <g id="Grupo_6429" data-name="Grupo 6429" transform="translate(0 0)">
                <path id="Trazado_282" data-name="Trazado 282" d="M5.371,0A5.468,5.468,0,0,1,10.86,5.35a5.506,5.506,0,0,1-5.545,5.567A5.406,5.406,0,0,1,0,5.418,5.342,5.342,0,0,1,5.371,0Z" transform="translate(36.471 9.275)" fill="#646464"/>
                <path id="Trazado_283" data-name="Trazado 283" d="M5.587,10.842A5.435,5.435,0,0,1,0,5.612a5.461,5.461,0,1,1,10.919-.226A5.36,5.36,0,0,1,5.587,10.842Z" transform="translate(0.012 32.395)" fill="#646464"/>
              </g>
            </g>
            <path id="Trazado_284" data-name="Trazado 284" d="M0,0S14.606,7.916,12.686,19.591s10.658,26.492,19.1,28.373" transform="translate(246.595 472.45) rotate(-5)" fill="none" stroke="#6a58db" stroke-width="3"/>
            <path id="Trazado_285" data-name="Trazado 285" d="M0,0S14.606,7.916,12.686,19.591s10.658,26.492,19.1,28.373" transform="translate(170.61 548.228) rotate(16)" fill="none" stroke="#6a58db" stroke-width="3"/>
            <g id="Grupo_6432" data-name="Grupo 6432" transform="matrix(0.998, 0.07, -0.07, 0.998, 232.875, 461.776)">
              <g id="Elipse_295" data-name="Elipse 295" transform="translate(6.443 3.865)" fill="#fff" stroke="#6a58db" stroke-width="1">
                <ellipse cx="5.651" cy="6.648" rx="5.651" ry="6.648" stroke="none"/>
                <ellipse cx="5.651" cy="6.648" rx="5.151" ry="6.148" fill="none"/>
              </g>
              <g id="Rectángulo_1299" data-name="Rectángulo 1299" transform="translate(4.328 5.319) rotate(21)" fill="#e9e5ff" stroke="#6a58db" stroke-width="1">
                <rect width="11.302" height="4.654" rx="2.327" stroke="none"/>
                <rect x="0.5" y="0.5" width="10.302" height="3.654" rx="1.827" fill="none"/>
              </g>
              <g id="Rectángulo_1300" data-name="Rectángulo 1300" transform="translate(4.327 9.308) rotate(21)" fill="#e9e5ff" stroke="#6a58db" stroke-width="1">
                <rect width="9.973" height="4.654" rx="2.327" stroke="none"/>
                <rect x="0.5" y="0.5" width="8.973" height="3.654" rx="1.827" fill="none"/>
              </g>
              <g id="Rectángulo_1301" data-name="Rectángulo 1301" transform="translate(1.668) rotate(21)" fill="#e9e5ff" stroke="#6a58db" stroke-width="1">
                <rect width="13.297" height="4.654" rx="2.327" stroke="none"/>
                <rect x="0.5" y="0.5" width="12.297" height="3.654" rx="1.827" fill="none"/>
              </g>
            </g>
            <g id="Grupo_6433" data-name="Grupo 6433" transform="matrix(0.07, 0.998, -0.998, 0.07, 175.512, 533.679)">
              <g id="Elipse_295-2" data-name="Elipse 295" transform="translate(6.443 0.064)" fill="#fff" stroke="#6a58db" stroke-width="1">
                <ellipse cx="5.651" cy="6.648" rx="5.651" ry="6.648" stroke="none"/>
                <ellipse cx="5.651" cy="6.648" rx="5.151" ry="6.148" fill="none"/>
              </g>
              <g id="Rectángulo_1299-2" data-name="Rectángulo 1299" transform="translate(2.66 7.563) rotate(-21)" fill="#e9e5ff" stroke="#6a58db" stroke-width="1">
                <rect width="11.302" height="4.654" rx="2.327" stroke="none"/>
                <rect x="0.5" y="0.5" width="10.302" height="3.654" rx="1.827" fill="none"/>
              </g>
              <g id="Rectángulo_1300-2" data-name="Rectángulo 1300" transform="translate(2.659 3.574) rotate(-21)" fill="#e9e5ff" stroke="#6a58db" stroke-width="1">
                <rect width="9.973" height="4.654" rx="2.327" stroke="none"/>
                <rect x="0.5" y="0.5" width="8.973" height="3.654" rx="1.827" fill="none"/>
              </g>
              <g id="Rectángulo_1301-2" data-name="Rectángulo 1301" transform="translate(0 12.882) rotate(-21)" fill="#e9e5ff" stroke="#6a58db" stroke-width="1">
                <rect width="13.297" height="4.654" rx="2.327" stroke="none"/>
                <rect x="0.5" y="0.5" width="12.297" height="3.654" rx="1.827" fill="none"/>
              </g>
            </g>
          </g>
          <ellipse id="Elipse_299" data-name="Elipse 299" cx="8" cy="12" rx="8" ry="12" transform="translate(310.1 294.585) rotate(-41)" fill="#685ea0" opacity="0.326"/>
        </g>
      </g>
    </g>
  </g>
</svg>
