<svg id="calendar-icon" xmlns="http://www.w3.org/2000/svg" width="77.589" height="84.254" viewBox="0 0 77.589 84.254">
  <path id="Trazado_387" data-name="Trazado 387" d="M849.493-82.281a.938.938,0,0,0-.054-.8,3.432,3.432,0,0,0,.059-1.884q.074-2.289.149-4.579l.29-.189c.494-.012.987-.034,1.481-.034q32.285,0,64.569,0c.539,0,1.077.024,1.616.036l.246.191c.014,2.545.043,5.089.04,7.634-.005,3.791-.033,7.582-.051,11.372-.711-.377-1.438-.728-2.13-1.137a20.189,20.189,0,0,0-12.26-2.491,22.061,22.061,0,0,0-11.418,4.581c-1.252-.009-2.5,0-3.756-.031-.766-.017-1.179.263-1.154,1.087.044,1.474.058,2.948.084,4.422a23.55,23.55,0,0,0-3.031,9.659,22.078,22.078,0,0,0,4.611,15.071c-.536.02-1.073.057-1.609.057q-15.327,0-30.655,0c-.58,0-1.159.053-1.739.082a15.214,15.214,0,0,1-2.262-.267c-1.835-.49-2.923-2.115-2.926-4.331-.014-8.256,0-16.512-.011-24.768,0-1.387-.049-2.774-.075-4.162Q849.722-77.521,849.493-82.281Zm15.812,17c0-1.119-.012-2.238,0-3.357.01-.675-.274-.967-.964-.962q-3.287.026-6.574-.011c-.7-.008-.974.312-.972.963,0,2.193.012,4.387.006,6.58,0,.662.278.987.961.984,2.193-.011,4.387-.006,6.58,0,.656,0,.983-.272.963-.971C865.28-63.133,865.3-64.209,865.305-65.283Zm-4.274,11.048c-.985,0-1.972.025-2.956-.008-.893-.03-1.361.361-1.364,1.251-.009,2.06-.013,4.121.005,6.181.007.818.448,1.2,1.283,1.191q3.024-.03,6.047,0c.925.01,1.276-.428,1.266-1.317q-.034-3.023,0-6.047c.01-.933-.439-1.279-1.323-1.256C863-54.215,862.016-54.234,861.031-54.235Zm19.376,4.442c0-1.075-.013-2.149,0-3.224.013-.842-.372-1.226-1.218-1.219-2.015.015-4.03.018-6.044,0-.788-.008-1.142.314-1.134,1.116.021,2.1.019,4.209.006,6.313-.005.867.435,1.192,1.252,1.187q2.955-.019,5.91,0c.837.005,1.24-.368,1.227-1.215C880.394-47.823,880.406-48.808,880.407-49.793Zm-8.386-15.719h.006c0,1.123,0,2.246,0,3.369,0,.7.286,1.128,1.023,1.13,2.066.007,4.132.013,6.2-.007.831-.008,1.178-.48,1.169-1.307-.022-2.021-.017-4.043,0-6.064.006-.846-.373-1.228-1.221-1.221-2.021.016-4.043.019-6.064,0-.81-.009-1.134.352-1.114,1.14C872.04-67.489,872.021-66.5,872.021-65.512Zm0-15.195h-.006c0,1.12-.007,2.24,0,3.361,0,.408.027.9.566.91,2.175.028,4.352.048,6.526-.019a1.231,1.231,0,0,0,1.312-1.378c-.035-2.016-.024-4.033-.014-6.049,0-.705-.253-1.1-1.013-1.093q-3.159.016-6.318,0c-.727,0-1.072.309-1.061,1.046C872.036-82.858,872.025-81.782,872.025-80.707Zm34.394-4.272c-.942,0-1.887.037-2.826-.011s-1.4.264-1.38,1.294c.046,2.055.012,4.111,0,6.166,0,.684.248,1.156.991,1.161,1.832.013,3.67.077,5.5-.031,1.459-.086,1.919-.715,1.923-2.187,0-1.705-.03-3.411.006-5.115.019-.905-.3-1.329-1.249-1.286C908.395-84.944,907.406-84.978,906.419-84.979Zm-10.9,4.386h-.006c0-1.076-.018-2.152.006-3.228.017-.768-.263-1.169-1.089-1.161q-3.094.032-6.188,0c-.8-.008-1.13.336-1.123,1.13.016,1.973.006,3.946-.015,5.918-.008.792.306,1.16,1.117,1.381,1.782.485,3.558.044,5.33.094,1.97.055,1.975-.142,1.968-2.249C895.516-79.338,895.518-79.965,895.518-80.593Z" transform="translate(-849.439 115.639)" fill="#fdfefd"/>
  <path id="Trazado_388" data-name="Trazado 388" d="M918.031-148.738c-.538-.012-1.077-.036-1.616-.036q-32.284,0-64.569,0c-.493,0-.987.022-1.481.034l-.288-.067c-.017-5.966-.095-11.932-.022-17.9.03-2.491,2.008-3.886,5.02-3.85h0l7.535,0c.472,1.118.164,2.29.211,3.435.066,1.63.56,2.361,1.731,2.342s1.655-.736,1.665-2.4a13.109,13.109,0,0,0-.013-1.742c-.153-1.182.281-1.753,1.5-1.632l34.193-.006a12.965,12.965,0,0,1,.18,3.474c.075,1.613.635,2.38,1.776,2.34,1.078-.038,1.621-.812,1.653-2.325.024-1.164.068-2.327.1-3.49h8.24c2.772.165,4.06,1.358,4.526,4.193-.018.49-.049.98-.051,1.47q-.031,8.041-.054,16.081A.4.4,0,0,0,918.031-148.738Z" transform="translate(-849.868 174.643)" fill="#fd4344"/>
  <path id="Trazado_389" data-name="Trazado 389" d="M985.93-27.579a22.061,22.061,0,0,1,11.418-4.581,20.189,20.189,0,0,1,12.26,2.491c.692.409,1.419.76,2.13,1.137a26.711,26.711,0,0,1,4.764,4.706,21.4,21.4,0,0,1-10.481,33.411,21.842,21.842,0,0,1-16.363-1.278L987.28,6.894a36.829,36.829,0,0,1-4.6-4.264,22.078,22.078,0,0,1-4.611-15.071A23.554,23.554,0,0,1,981.1-22.1,32.462,32.462,0,0,1,985.93-27.579ZM1013.374-16.2c-.156-.165-.33-.37-.525-.553-1.013-.953-2.084-1.852-3.03-2.868-.678-.729-1.082-.709-1.807-.012-3.56,3.419-7.209,6.746-10.765,10.168-.737.709-1.124.67-1.808-.018-1.518-1.527-3.144-2.945-4.689-4.446-.5-.482-.827-.488-1.318,0-1.082,1.075-2.2,2.116-3.339,3.129-.53.471-.522.775.006,1.263q4.843,4.479,9.627,9.021c.444.421.726.478,1.207.024q7.983-7.527,16-15.017C1013.125-15.688,1013.372-15.836,1013.374-16.2Z" transform="translate(-943.339 73.634)" fill="#85ce33"/>
  <path id="Trazado_393" data-name="Trazado 393" d="M1046.06-181.536c-.035,1.163-.078,2.326-.1,3.49-.031,1.513-.574,2.287-1.653,2.325-1.141.04-1.7-.727-1.776-2.34a12.965,12.965,0,0,0-.18-3.474,8,8,0,0,0,.194-2.374,1.62,1.62,0,0,1,1.688-1.691,1.654,1.654,0,0,1,1.726,1.674C1046.036-183.134,1046.029-182.334,1046.06-181.536Z" transform="translate(-990.316 185.621)" fill="#85ce33"/>
  <path id="Trazado_394" data-name="Trazado 394" d="M901.774-181.583c-1.224-.121-1.657.449-1.5,1.632a13.109,13.109,0,0,1,.013,1.742c-.01,1.665-.509,2.383-1.665,2.4s-1.665-.712-1.731-2.342c-.046-1.145.262-2.317-.211-3.435.368-.582.172-1.228.194-1.843.051-1.458.656-2.259,1.75-2.244s1.661.8,1.686,2.3a1.284,1.284,0,0,1,0,.269C900.059-181.887,900.683-181.51,901.774-181.583Z" transform="translate(-883.935 185.674)" fill="#85ce33"/>
  <path id="Trazado_403" data-name="Trazado 403" d="M868.742-170.512h0Z" transform="translate(-863.536 174.602)" fill="#85ce33"/>
  <path id="Trazado_404" data-name="Trazado 404" d="M1086.656-170.526h0Z" transform="translate(-1022.672 174.613)" fill="#85ce33"/>
  <path id="Trazado_405" data-name="Trazado 405" d="M850.118-89.887l.288.067-.29.189A.241.241,0,0,1,850.118-89.887Z" transform="translate(-849.907 115.723)" fill="#e3e0d1"/>
  <path id="Trazado_406" data-name="Trazado 406" d="M885.233-10.7c0,1.074-.024,2.149.006,3.222.02.7-.307.972-.963.971-2.193,0-4.387-.008-6.58,0-.683,0-.962-.322-.961-.984.006-2.193,0-4.387-.006-6.58,0-.651.274-.971.972-.963q3.286.039,6.574.011c.69-.005.974.287.964.962C885.222-12.942,885.234-11.823,885.233-10.7Z" transform="translate(-869.368 61.06)" fill="#fd4344"/>
  <path id="Trazado_407" data-name="Trazado 407" d="M880.7,41.955c.986,0,1.972.02,2.956-.006.884-.023,1.333.323,1.322,1.256q-.033,3.023,0,6.047c.01.89-.341,1.327-1.266,1.317q-3.024-.032-6.047,0c-.835.008-1.276-.373-1.283-1.191-.018-2.06-.015-4.121-.005-6.181,0-.89.471-1.281,1.364-1.251C878.725,41.98,879.712,41.954,880.7,41.955Z" transform="translate(-869.105 19.45)" fill="#e3e0d1"/>
  <path id="Trazado_408" data-name="Trazado 408" d="M941.529,46.41c0,.985-.012,1.97,0,2.955.013.847-.39,1.22-1.227,1.215q-2.955-.019-5.91,0c-.817.005-1.258-.32-1.252-1.187.013-2.1.015-4.209-.006-6.313-.008-.8.346-1.124,1.134-1.116,2.015.02,4.03.017,6.044,0,.845-.006,1.23.377,1.218,1.219C941.517,44.261,941.53,45.336,941.529,46.41Z" transform="translate(-910.562 19.436)" fill="#e3e0d1"/>
  <path id="Trazado_409" data-name="Trazado 409" d="M933.141-10.943c0-.988.019-1.977-.006-2.965-.02-.788.3-1.149,1.114-1.14,2.021.023,4.043.019,6.064,0,.849-.006,1.228.375,1.221,1.221-.015,2.021-.02,4.043,0,6.064.009.827-.338,1.3-1.169,1.307-2.066.02-4.132.014-6.2.007-.737,0-1.027-.435-1.023-1.13.006-1.123,0-2.246,0-3.369Z" transform="translate(-910.559 61.07)" fill="#e3e0d1"/>
  <path id="Trazado_410" data-name="Trazado 410" d="M933.151-67.733c0-1.075.012-2.151,0-3.226-.011-.737.334-1.051,1.061-1.046q3.159.02,6.318,0c.76,0,1.017.388,1.013,1.093-.01,2.016-.021,4.033.014,6.049a1.231,1.231,0,0,1-1.312,1.378c-2.173.067-4.35.047-6.526.019-.539-.007-.562-.5-.566-.91-.011-1.12,0-2.24,0-3.361Z" transform="translate(-910.566 102.665)" fill="#e3e0d1"/>
  <path id="Trazado_411" data-name="Trazado 411" d="M1049.3-72.046c.987,0,1.976.035,2.961-.009.946-.043,1.268.381,1.249,1.286-.036,1.7,0,3.41-.006,5.115,0,1.472-.464,2.1-1.923,2.187-1.826.108-3.664.045-5.5.031-.743-.005-.994-.477-.991-1.161.01-2.056.045-4.112,0-6.166-.023-1.029.432-1.341,1.38-1.294S1048.353-72.046,1049.3-72.046Z" transform="translate(-992.316 102.706)" fill="#e3e0d1"/>
  <path id="Trazado_412" data-name="Trazado 412" d="M997.493-67.63c0,.628,0,1.256,0,1.883.008,2.107,0,2.3-1.968,2.249-1.772-.05-3.548.391-5.33-.094-.812-.221-1.126-.588-1.118-1.381.021-1.973.031-3.946.015-5.918-.006-.793.323-1.138,1.123-1.13q3.093.032,6.188,0c.826-.008,1.105.393,1.089,1.161-.023,1.076-.006,2.152-.006,3.228Z" transform="translate(-951.414 102.676)" fill="#e3e0d1"/>
  <path id="Trazado_413" data-name="Trazado 413" d="M994.047-15.011a32.462,32.462,0,0,0-4.825,5.479c-.026-1.474-.04-2.948-.084-4.422-.025-.824.388-1.1,1.154-1.087C991.543-15.014,992.795-15.02,994.047-15.011Z" transform="translate(-951.456 61.067)" fill="#e3e0d1"/>
  <path id="Trazado_414" data-name="Trazado 414" d="M1102.394-89.909l.005.265-.246-.19A.4.4,0,0,1,1102.394-89.909Z" transform="translate(-1033.989 115.74)" fill="#e3e0d1"/>
  <path id="Trazado_415" data-name="Trazado 415" d="M1034.161,16.525c0,.367-.25.514-.44.692q-8,7.506-16,15.017c-.481.454-.763.4-1.207-.024q-4.79-4.535-9.627-9.021c-.528-.488-.536-.791-.006-1.263,1.14-1.013,2.257-2.054,3.339-3.129.491-.488.823-.482,1.318,0,1.545,1.5,3.171,2.919,4.689,4.446.684.688,1.071.727,1.808.018,3.556-3.423,7.205-6.749,10.765-10.168.726-.7,1.129-.716,1.807.012.946,1.016,2.017,1.915,3.03,2.868C1033.831,16.155,1034.005,16.36,1034.161,16.525Z" transform="translate(-964.127 40.906)" fill="#fdfefd"/>
</svg>
