<svg id="nippy-face" xmlns="http://www.w3.org/2000/svg" width="52" height="52" viewBox="0 0 52 52">
  <circle id="Elipse_303" data-name="Elipse 303" cx="26" cy="26" r="26" fill="#e9e5ff"/>
  <g id="Grupo_6430" data-name="Grupo 6430" transform="translate(-201.499 -564.935)">
    <g id="Grupo_6429" data-name="Grupo 6429" transform="translate(214 581)">
      <path id="Trazado_281" data-name="Trazado 281" d="M-634.028,644.7c-.279.979-.489,2.02-.869,2.993a7.84,7.84,0,0,1-8.911,5.043c-1.127-.2-2.019-.23-2.654.865a.892.892,0,0,1-.49.382,3.274,3.274,0,0,1-.8.02c.042-.256-.01-.633.14-.751,1.313-1.025,1.662-2.175.647-3.616-.1-.138.044-.445.074-.674.258.054.618.022.755.181a2.443,2.443,0,0,1,.674,1.188c.1,1.04.743,1.259,1.6,1.41a7.237,7.237,0,0,0,8.563-6.554,2.643,2.643,0,0,0-.584-1.359c-.194-.313-.6-.5-.771-.821a3.02,3.02,0,0,1-.167-.994c.311.109.728.125.915.341a2.236,2.236,0,0,0,3.335.529c.178-.123.518-.011.783-.007-.081.286-.072.713-.259.832A19.5,19.5,0,0,1-634.028,644.7Z" transform="translate(654.988 -633.818)" fill="#646464"/>
      <path id="Trazado_282" data-name="Trazado 282" d="M-601.126,609.709a2.756,2.756,0,0,1,2.767,2.7,2.775,2.775,0,0,1-2.8,2.806,2.725,2.725,0,0,1-2.679-2.772A2.693,2.693,0,0,1-601.126,609.709Z" transform="translate(622.211 -609.709)" fill="#646464"/>
      <path id="Trazado_283" data-name="Trazado 283" d="M-673.474,661.12a2.74,2.74,0,0,1-2.815-2.636,2.762,2.762,0,0,1,2.761-2.829,2.741,2.741,0,0,1,2.743,2.715A2.7,2.7,0,0,1-673.474,661.12Z" transform="translate(676.29 -644.001)" fill="#646464"/>
    </g>
  </g>
</svg>
