<svg id="nippy-enojado-icon" xmlns="http://www.w3.org/2000/svg" xmlns:xlink="http://www.w3.org/1999/xlink" width="223.857" height="328.908" viewBox="0 0 223.857 328.908">
  <defs>
    <clipPath id="clip-path">
      <rect y="38" width="223.857" height="328.908" fill="none"/>
    </clipPath>
    <clipPath id="clip-path-2">
      <rect width="223.857" height="411.908" fill="none"/>
    </clipPath>
    <clipPath id="clip-path-3">
      <rect x="19" width="223.857" height="411.908" fill="none"/>
    </clipPath>
    <clipPath id="clip-path-4">
      <rect width="426.857" height="411.908" fill="none"/>
    </clipPath>
  </defs>
  <g id="Grupo_de_desplazamiento_2" data-name="Grupo de desplazamiento 2" transform="translate(0 -38)" clip-path="url(#clip-path)" style="isolation: isolate">
    <g id="Repetir_cuadrícula_2" data-name="Repetir cuadrícula 2" clip-path="url(#clip-path-2)">
      <g transform="translate(-150.952 37.519)">
        <g id="Grupo_de_desplazamiento_1" data-name="Grupo de desplazamiento 1" transform="translate(131.952 -37.519)" clip-path="url(#clip-path-3)" style="isolation: isolate">
          <g id="Repetir_cuadrícula_1" data-name="Repetir cuadrícula 1" clip-path="url(#clip-path-4)">
            <g transform="translate(-131.952 37.519)">
              <g id="Grupo_6434" data-name="Grupo 6434" transform="translate(-353.919 328.153) rotate(-76)">
                <ellipse id="Elipse_291" data-name="Elipse 291" cx="151" cy="148" rx="151" ry="148" transform="translate(190 522)" fill="#e9e5ff"/>
                <g id="Grupo_6430" data-name="Grupo 6430" transform="matrix(0.438, -0.899, 0.899, 0.438, -356.528, 572.336)">
                  <g id="Grupo_6429" data-name="Grupo 6429" transform="translate(214 581)">
                    <path id="Trazado_281" data-name="Trazado 281" d="M-617.5,647.935c-.616,2.158-1.078,4.452-1.915,6.6a17.284,17.284,0,0,1-19.644,11.118c-2.484-.437-4.451-.508-5.852,1.906a1.967,1.967,0,0,1-1.081.841,7.214,7.214,0,0,1-1.755.044c.092-.565-.022-1.4.309-1.655,2.894-2.261,3.665-4.795,1.426-7.971-.215-.305.1-.981.163-1.485.57.12,1.362.048,1.664.4a5.385,5.385,0,0,1,1.486,2.619c.222,2.294,1.638,2.775,3.536,3.108a15.955,15.955,0,0,0,18.877-14.45c.087-.96-.715-2.07-1.288-3-.428-.69-1.313-1.108-1.7-1.81a6.652,6.652,0,0,1-.368-2.19c.685.239,1.6.276,2.018.752,2.165,2.495,4.486,3.143,7.353,1.166.393-.271,1.142-.023,1.727-.016-.178.631-.158,1.572-.571,1.835A43.023,43.023,0,0,1-617.5,647.935Z" transform="translate(663.709 -623.948)" fill="#646464"/>
                    <path id="Trazado_282" data-name="Trazado 282" d="M-597.864,609.709a6.076,6.076,0,0,1,6.1,5.946,6.119,6.119,0,0,1-6.162,6.187,6.008,6.008,0,0,1-5.906-6.111A5.936,5.936,0,0,1-597.864,609.709Z" transform="translate(660.322 -581.339)" fill="#646464"/>
                    <path id="Trazado_283" data-name="Trazado 283" d="M-670.081,667.7a6.04,6.04,0,0,1-6.206-5.812,6.09,6.09,0,0,1,6.087-6.236,6.042,6.042,0,0,1,6.047,5.985A5.956,5.956,0,0,1-670.081,667.7Z" transform="translate(692.263 -601.593)" fill="#646464"/>
                  </g>
                </g>
                <path id="Trazado_284" data-name="Trazado 284" d="M9422.406,2157s21.969,11.906,19.08,29.467,16.03,39.846,28.728,42.676" transform="translate(-9282.981 -849.744) rotate(-5)" fill="none" stroke="#6a58db" stroke-width="3"/>
                <path id="Trazado_285" data-name="Trazado 285" d="M9422.406,2157s21.969,11.906,19.08,29.467,16.03,39.846,28.728,42.676" transform="translate(-8285.573 -4078.8) rotate(16)" fill="none" stroke="#6a58db" stroke-width="3"/>
                <g id="Grupo_6432" data-name="Grupo 6432" transform="matrix(0.998, 0.07, -0.07, 0.998, 55.763, -6.561)">
                  <g id="Elipse_295" data-name="Elipse 295" transform="translate(257 458)" fill="#fff" stroke="#6a58db" stroke-width="1">
                    <ellipse cx="8.5" cy="10" rx="8.5" ry="10" stroke="none"/>
                    <ellipse cx="8.5" cy="10" rx="8" ry="9.5" fill="none"/>
                  </g>
                  <g id="Rectángulo_1299" data-name="Rectángulo 1299" transform="translate(253.819 460.186) rotate(21)" fill="#e9e5ff" stroke="#6a58db" stroke-width="1">
                    <rect width="17" height="7" rx="3.5" stroke="none"/>
                    <rect x="0.5" y="0.5" width="16" height="6" rx="3" fill="none"/>
                  </g>
                  <g id="Rectángulo_1300" data-name="Rectángulo 1300" transform="translate(253.818 466.186) rotate(21)" fill="#e9e5ff" stroke="#6a58db" stroke-width="1">
                    <rect width="15" height="7" rx="3.5" stroke="none"/>
                    <rect x="0.5" y="0.5" width="14" height="6" rx="3" fill="none"/>
                  </g>
                  <g id="Rectángulo_1301" data-name="Rectángulo 1301" transform="translate(249.818 452.186) rotate(21)" fill="#e9e5ff" stroke="#6a58db" stroke-width="1">
                    <rect width="20" height="7" rx="3.5" stroke="none"/>
                    <rect x="0.5" y="0.5" width="19" height="6" rx="3" fill="none"/>
                  </g>
                </g>
                <g id="Grupo_6433" data-name="Grupo 6433" transform="matrix(0.07, 0.998, -0.998, 0.07, 184.648, 569.925)">
                  <g id="Elipse_295-2" data-name="Elipse 295" transform="translate(9.69 0.097)" fill="#fff" stroke="#6a58db" stroke-width="1">
                    <ellipse cx="8.5" cy="10" rx="8.5" ry="10" stroke="none"/>
                    <ellipse cx="8.5" cy="10" rx="8" ry="9.5" fill="none"/>
                  </g>
                  <g id="Rectángulo_1299-2" data-name="Rectángulo 1299" transform="translate(4.001 11.376) rotate(-21)" fill="#e9e5ff" stroke="#6a58db" stroke-width="1">
                    <rect width="17" height="7" rx="3.5" stroke="none"/>
                    <rect x="0.5" y="0.5" width="16" height="6" rx="3" fill="none"/>
                  </g>
                  <g id="Rectángulo_1300-2" data-name="Rectángulo 1300" transform="translate(4 5.376) rotate(-21)" fill="#e9e5ff" stroke="#6a58db" stroke-width="1">
                    <rect width="15" height="7" rx="3.5" stroke="none"/>
                    <rect x="0.5" y="0.5" width="14" height="6" rx="3" fill="none"/>
                  </g>
                  <g id="Rectángulo_1301-2" data-name="Rectángulo 1301" transform="translate(0 19.376) rotate(-21)" fill="#e9e5ff" stroke="#6a58db" stroke-width="1">
                    <rect width="20" height="7" rx="3.5" stroke="none"/>
                    <rect x="0.5" y="0.5" width="19" height="6" rx="3" fill="none"/>
                  </g>
                </g>
              </g>
              <path id="Trazado_450" data-name="Trazado 450" d="M9935.447,1840.822l16.085-11.151" transform="translate(-9600 -1681)" fill="none" stroke="#707070" stroke-width="3"/>
              <path id="Trazado_451" data-name="Trazado 451" d="M9949.815,1842.842l-14.367-13.171" transform="translate(-9636.001 -1685)" fill="none" stroke="#707070" stroke-width="3"/>
            </g>
          </g>
        </g>
      </g>
    </g>
  </g>
</svg>
