<svg id="sticker-example" xmlns="http://www.w3.org/2000/svg" width="144.434" height="142.571" viewBox="0 0 144.434 142.571">
  <g id="Grupo_6507" data-name="Grupo 6507">
    <g id="Grupo_6505" data-name="Grupo 6505" transform="translate(0 0)">
      <g id="Grupo_6504" data-name="Grupo 6504" transform="translate(0 0)">
        <path id="Trazado_444" data-name="Trazado 444" d="M124.788,61.375a2.785,2.785,0,0,0-1.305,5.414,50.122,50.122,0,1,1-23.582,0A2.785,2.785,0,1,0,98.6,61.376,55.959,55.959,0,0,0,68.135,80.811,55.09,55.09,0,0,0,56,115.514a55.692,55.692,0,0,0,111.383,0,55.09,55.09,0,0,0-12.134-34.7A55.961,55.961,0,0,0,124.788,61.375Z" transform="translate(-40.407 -44.228)" fill="#f2b725"/>
        <path id="Trazado_445" data-name="Trazado 445" d="M140.893,64.588l-3.258-6.078L138.178,51a14.213,14.213,0,0,0-5.146-12.582l-5.408-4.428L125.5,27.578a14.312,14.312,0,0,0-9.74-10.3l-6.675-2.017-5.112-5.909A14.25,14.25,0,0,0,91.724,4.4L84.8,5.1l-6.81-3.416a14.207,14.207,0,0,0-13.4,0L58.51,4.936,51,4.392A14.212,14.212,0,0,0,38.414,9.538l-4.428,5.408-6.408,2.127a14.312,14.312,0,0,0-10.3,9.74l-2.016,6.675L9.357,38.6A14.249,14.249,0,0,0,4.4,50.847l.69,6.928-3.416,6.81a14.207,14.207,0,0,0,0,13.4l3.258,6.078-.544,7.514a14.215,14.215,0,0,0,5.146,12.582l5.408,4.428,2.127,6.408a14.311,14.311,0,0,0,9.74,10.3l6.675,2.016,5.112,5.909a14.247,14.247,0,0,0,12.247,4.952l6.928-.69,6.81,3.416a14.207,14.207,0,0,0,13.4,0l6.078-3.257,7.514.544a14.218,14.218,0,0,0,12.582-5.146l4.428-5.408,6.408-2.127a14.312,14.312,0,0,0,10.3-9.74l2.017-6.675,5.909-5.112a14.249,14.249,0,0,0,4.952-12.247l-.691-6.927,3.416-6.81a14.208,14.208,0,0,0,0-13.4Zm-4.927,10.8-.036.069-3.794,7.564a2.787,2.787,0,0,0-.282,1.525l.771,7.727a8.688,8.688,0,0,1-3.036,7.471l-6.538,5.656a2.783,2.783,0,0,0-.843,1.3l-2.25,7.447a8.728,8.728,0,0,1-6.359,5.958c-.083.019-.165.042-.245.069l-7.288,2.419a2.785,2.785,0,0,0-1.277.879l-4.94,6.033a8.668,8.668,0,0,1-7.708,3.133l-.11-.01-8.371-.605a2.784,2.784,0,0,0-1.516.323l-6.784,3.636a8.646,8.646,0,0,1-8.175-.016l-.068-.035-7.564-3.794a2.786,2.786,0,0,0-1.249-.3q-.138,0-.276.014l-7.727.77a8.686,8.686,0,0,1-7.471-3.035l-5.656-6.538a2.781,2.781,0,0,0-1.3-.844l-7.447-2.25a8.727,8.727,0,0,1-5.958-6.359q-.029-.124-.069-.245l-2.419-7.289a2.781,2.781,0,0,0-.879-1.277l-6.033-4.94A8.667,8.667,0,0,1,9.933,92.14c0-.037.008-.074.01-.111l.605-8.371a2.784,2.784,0,0,0-.323-1.516L6.589,75.358A8.647,8.647,0,0,1,6.6,67.183c.012-.023.024-.045.035-.068l3.794-7.564a2.783,2.783,0,0,0,.282-1.525L9.946,50.3a8.688,8.688,0,0,1,3.036-7.471l6.538-5.656a2.785,2.785,0,0,0,.844-1.3l2.25-7.448a8.728,8.728,0,0,1,6.359-5.958q.124-.029.245-.069l7.288-2.419a2.781,2.781,0,0,0,1.277-.879l4.94-6.033a8.67,8.67,0,0,1,7.708-3.132l.11.01,8.371.605a2.8,2.8,0,0,0,1.516-.323l6.784-3.636a8.646,8.646,0,0,1,8.174.016l.069.035,7.564,3.794a2.781,2.781,0,0,0,1.525.282l7.728-.77a8.687,8.687,0,0,1,7.471,3.036L105.4,19.52a2.784,2.784,0,0,0,1.3.844l7.447,2.25a8.729,8.729,0,0,1,5.958,6.359q.029.124.069.245l2.419,7.288a2.784,2.784,0,0,0,.879,1.277l6.033,4.94a8.666,8.666,0,0,1,3.132,7.708c0,.037-.008.074-.01.111l-.605,8.371a2.787,2.787,0,0,0,.323,1.516l3.636,6.784a8.646,8.646,0,0,1-.016,8.175Z" transform="translate(0.001 0)" fill="#f2b725"/>
        <path id="Trazado_447" data-name="Trazado 447" d="M248.784,61.57a2.785,2.785,0,0,0,0-5.569h0a2.785,2.785,0,0,0,0,5.569Z" transform="translate(-177.498 -40.407)" fill="#f2b725"/>
      </g>
    </g>
  </g>
  <g id="Grupo_6506" data-name="Grupo 6506" transform="translate(49.69 52.611)">
    <g id="Grupo_6429" data-name="Grupo 6429" transform="translate(0 0)">
      <path id="Trazado_281" data-name="Trazado 281" d="M-624.3,646.6c-.477,1.673-.835,3.451-1.485,5.115a13.4,13.4,0,0,1-15.227,8.618c-1.925-.339-3.45-.394-4.536,1.477a1.525,1.525,0,0,1-.838.652,5.6,5.6,0,0,1-1.361.034c.072-.438-.017-1.082.24-1.283,2.243-1.752,2.841-3.717,1.105-6.179-.166-.237.075-.761.126-1.151.442.093,1.055.037,1.289.309a4.175,4.175,0,0,1,1.152,2.03c.172,1.778,1.27,2.151,2.741,2.409a12.367,12.367,0,0,0,14.632-11.2,4.517,4.517,0,0,0-1-2.323c-.332-.535-1.018-.859-1.317-1.4a5.16,5.16,0,0,1-.285-1.7c.532.185,1.244.214,1.564.583,1.678,1.934,3.478,2.436,5.7.9.3-.21.885-.018,1.338-.013-.138.489-.123,1.219-.443,1.423A33.325,33.325,0,0,1-624.3,646.6Z" transform="translate(660.12 -628.01)" fill="#646464"/>
      <path id="Trazado_282" data-name="Trazado 282" d="M-599.207,609.709a4.71,4.71,0,0,1,4.728,4.609,4.743,4.743,0,0,1-4.776,4.8,4.657,4.657,0,0,1-4.578-4.737A4.6,4.6,0,0,1-599.207,609.709Z" transform="translate(635.239 -609.709)" fill="#646464"/>
      <path id="Trazado_283" data-name="Trazado 283" d="M-671.477,664.994a4.682,4.682,0,0,1-4.81-4.505,4.72,4.72,0,0,1,4.718-4.834,4.683,4.683,0,0,1,4.688,4.639A4.617,4.617,0,0,1-671.477,664.994Z" transform="translate(676.29 -635.74)" fill="#646464"/>
    </g>
  </g>
  <path id="Trazado_448" data-name="Trazado 448" d="M985.335-27.93a20.4,20.4,0,0,1,10.559-4.237,18.671,18.671,0,0,1,11.338,2.3c.64.378,1.312.7,1.97,1.051a24.7,24.7,0,0,1,4.406,4.352,19.787,19.787,0,0,1-9.693,30.9,20.2,20.2,0,0,1-15.132-1.182l-2.2-1.307a34.062,34.062,0,0,1-4.25-3.943,20.419,20.419,0,0,1-4.264-13.938,21.783,21.783,0,0,1,2.8-8.933A30.019,30.019,0,0,1,985.335-27.93Zm25.381,10.521c-.144-.153-.306-.342-.485-.511-.937-.882-1.928-1.713-2.8-2.652-.627-.674-1-.656-1.672-.011-3.292,3.162-6.667,6.238-9.956,9.4-.682.656-1.039.62-1.672-.016-1.4-1.412-2.907-2.724-4.336-4.112-.458-.446-.765-.451-1.219,0-1,.994-2.034,1.957-3.088,2.894-.49.436-.483.716.005,1.168q4.479,4.142,8.9,8.343c.411.389.672.442,1.117.022q7.383-6.961,14.8-13.888C1010.485-16.934,1010.714-17.07,1010.716-17.409Z" transform="translate(-873.268 131.187)" fill="#85ce33"/>
  <path id="Trazado_449" data-name="Trazado 449" d="M1032.081,16.227c0,.339-.231.475-.406.64q-7.4,6.941-14.8,13.888c-.445.42-.706.367-1.117-.022q-4.43-4.194-8.9-8.343c-.488-.451-.5-.732-.006-1.168,1.054-.937,2.088-1.9,3.088-2.894.454-.451.761-.446,1.219,0,1.429,1.388,2.932,2.7,4.336,4.112.632.636.99.672,1.672.016,3.289-3.165,6.664-6.242,9.956-9.4.671-.645,1.045-.663,1.672.011.874.939,1.865,1.771,2.8,2.652C1031.775,15.885,1031.936,16.075,1032.081,16.227Z" transform="translate(-894.632 97.55)" fill="#fdfefd"/>
</svg>
